<svg width="104" height="40" viewBox="0 0 104 40" fill="none" xmlns="http://www.w3.org/2000/svg">
<rect width="104" height="40" rx="8" fill="url(#paint0_linear_252_219)"/>
<path d="M28 11.75C28.7812 11.75 29.5104 11.9453 30.1875 12.3359C30.8646 12.7266 31.3984 13.2604 31.7891 13.9375C32.1797 14.6146 32.375 15.3438 32.375 16.125C32.375 16.9062 32.1797 17.6354 31.7891 18.3125C31.3984 18.9896 30.8646 19.5234 30.1875 19.9141C29.5104 20.3047 28.7812 20.5 28 20.5C27.2188 20.5 26.4896 20.3047 25.8125 19.9141C25.1354 19.5234 24.6016 18.9896 24.2109 18.3125C23.8203 17.6354 23.625 16.9062 23.625 16.125C23.625 15.3438 23.8203 14.6146 24.2109 13.9375C24.6016 13.2604 25.1354 12.7266 25.8125 12.3359C26.4896 11.9453 27.2188 11.75 28 11.75ZM33 24.25C34.0417 24.25 34.9271 24.6146 35.6562 25.3438C36.3854 26.0729 36.75 26.9583 36.75 28V29.25H19.25V28C19.25 26.9583 19.6146 26.0729 20.3438 25.3438C21.0729 24.6146 21.9583 24.25 23 24.25C23.8073 24.25 24.4583 24.2891 24.9531 24.3672C25.2656 24.4193 25.6172 24.4974 26.0078 24.6016C26.3203 24.7057 26.5677 24.7708 26.75 24.7969C27.0885 24.849 27.5052 24.875 28 24.875C28.4948 24.875 28.9115 24.849 29.25 24.7969C29.4323 24.7708 29.6927 24.7057 30.0312 24.6016C30.3958 24.4974 30.7344 24.4193 31.0469 24.3672C31.5417 24.2891 32.1927 24.25 33 24.25ZM28 10.5C26.9844 10.5 26.0469 10.7604 25.1875 11.2812C24.3281 11.776 23.638 12.4531 23.1172 13.3125C22.6224 14.1719 22.375 15.1094 22.375 16.125C22.375 17.1406 22.6224 18.0781 23.1172 18.9375C23.638 19.7969 24.3281 20.487 25.1875 21.0078C26.0469 21.5026 26.9844 21.75 28 21.75C29.0156 21.75 29.9531 21.5026 30.8125 21.0078C31.6719 20.487 32.349 19.7969 32.8438 18.9375C33.3646 18.0781 33.625 17.1406 33.625 16.125C33.625 15.1094 33.3646 14.1719 32.8438 13.3125C32.349 12.4531 31.6719 11.776 30.8125 11.2812C29.9531 10.7604 29.0156 10.5 28 10.5ZM33 23C32.1146 23 31.3984 23.0391 30.8516 23.1172C30.5391 23.1693 30.1875 23.2474 29.7969 23.3516C29.5104 23.4557 29.276 23.5208 29.0938 23.5469C28.8073 23.599 28.4427 23.625 28 23.625C27.5573 23.625 27.1927 23.599 26.9062 23.5469C26.724 23.5208 26.4896 23.4557 26.2031 23.3516C25.8125 23.2474 25.4609 23.1693 25.1484 23.1172C24.6016 23.0391 23.8724 23 22.9609 23C22.0755 23 21.2422 23.2214 20.4609 23.6641C19.7057 24.1068 19.1068 24.7188 18.6641 25.5C18.2214 26.2552 18 27.0885 18 28V29.25C18 29.5885 18.1172 29.875 18.3516 30.1094C18.612 30.3698 18.9115 30.5 19.25 30.5H36.75C37.0885 30.5 37.375 30.3698 37.6094 30.1094C37.8698 29.875 38 29.5885 38 29.25V28C38 27.0885 37.7786 26.2552 37.3359 25.5C36.8932 24.7188 36.2812 24.1068 35.5 23.6641C34.7448 23.2214 33.9115 23 33 23Z" fill="white"/>
<path d="M52.6998 23.154H48.9168L48.2668 25H46.7198L49.9568 15.952H51.6728L54.9098 25H53.3498L52.6998 23.154ZM52.2838 21.945L50.8148 17.746L49.3328 21.945H52.2838ZM57.7993 18.903C58.0506 18.5563 58.393 18.2747 58.8263 18.058C59.2683 17.8327 59.758 17.72 60.2953 17.72C60.928 17.72 61.5 17.8717 62.0113 18.175C62.5226 18.4783 62.9256 18.9117 63.2203 19.475C63.515 20.0297 63.6623 20.6667 63.6623 21.386C63.6623 22.1053 63.515 22.751 63.2203 23.323C62.9256 23.8863 62.5183 24.3283 61.9983 24.649C61.487 24.961 60.9193 25.117 60.2953 25.117C59.7406 25.117 59.2466 25.0087 58.8133 24.792C58.3886 24.5753 58.0506 24.298 57.7993 23.96V25H56.3173V15.38H57.7993V18.903ZM62.1543 21.386C62.1543 20.892 62.0503 20.4673 61.8423 20.112C61.643 19.748 61.3743 19.475 61.0363 19.293C60.707 19.1023 60.3516 19.007 59.9703 19.007C59.5976 19.007 59.2423 19.1023 58.9043 19.293C58.575 19.4837 58.3063 19.761 58.0983 20.125C57.899 20.489 57.7993 20.918 57.7993 21.412C57.7993 21.906 57.899 22.3393 58.0983 22.712C58.3063 23.076 58.575 23.3533 58.9043 23.544C59.2423 23.7347 59.5976 23.83 59.9703 23.83C60.3516 23.83 60.707 23.7347 61.0363 23.544C61.3743 23.3447 61.643 23.0587 61.8423 22.686C62.0503 22.3133 62.1543 21.88 62.1543 21.386ZM68.2348 25.117C67.5588 25.117 66.9478 24.9653 66.4018 24.662C65.8558 24.35 65.4268 23.9167 65.1148 23.362C64.8028 22.7987 64.6468 22.1487 64.6468 21.412C64.6468 20.684 64.8072 20.0383 65.1278 19.475C65.4485 18.9117 65.8862 18.4783 66.4408 18.175C66.9955 17.8717 67.6152 17.72 68.2998 17.72C68.9845 17.72 69.6042 17.8717 70.1588 18.175C70.7135 18.4783 71.1512 18.9117 71.4718 19.475C71.7925 20.0383 71.9528 20.684 71.9528 21.412C71.9528 22.14 71.7882 22.7857 71.4588 23.349C71.1295 23.9123 70.6788 24.35 70.1068 24.662C69.5435 24.9653 68.9195 25.117 68.2348 25.117ZM68.2348 23.83C68.6162 23.83 68.9715 23.739 69.3008 23.557C69.6388 23.375 69.9118 23.102 70.1198 22.738C70.3278 22.374 70.4318 21.932 70.4318 21.412C70.4318 20.892 70.3322 20.4543 70.1328 20.099C69.9335 19.735 69.6692 19.462 69.3398 19.28C69.0105 19.098 68.6552 19.007 68.2738 19.007C67.8925 19.007 67.5372 19.098 67.2078 19.28C66.8872 19.462 66.6315 19.735 66.4408 20.099C66.2502 20.4543 66.1548 20.892 66.1548 21.412C66.1548 22.1833 66.3498 22.7813 66.7398 23.206C67.1385 23.622 67.6368 23.83 68.2348 23.83ZM79.9049 17.837V25H78.4229V24.155C78.1889 24.4497 77.8812 24.6837 77.4999 24.857C77.1272 25.0217 76.7285 25.104 76.3039 25.104C75.7405 25.104 75.2335 24.987 74.7829 24.753C74.3409 24.519 73.9899 24.1723 73.7299 23.713C73.4785 23.2537 73.3529 22.699 73.3529 22.049V17.837H74.8219V21.828C74.8219 22.4693 74.9822 22.9633 75.3029 23.31C75.6235 23.648 76.0612 23.817 76.6159 23.817C77.1705 23.817 77.6082 23.648 77.9289 23.31C78.2582 22.9633 78.4229 22.4693 78.4229 21.828V17.837H79.9049ZM83.5893 19.046V23.011C83.5893 23.2797 83.6499 23.4747 83.7713 23.596C83.9013 23.7087 84.1179 23.765 84.4213 23.765H85.3313V25H84.1613C83.4939 25 82.9826 24.844 82.6273 24.532C82.2719 24.22 82.0943 23.713 82.0943 23.011V19.046H81.2493V17.837H82.0943V16.056H83.5893V17.837H85.3313V19.046H83.5893Z" fill="white"/>
<defs>
<linearGradient id="paint0_linear_252_219" x1="52" y1="-2.01464e-06" x2="104" y2="40" gradientUnits="userSpaceOnUse">
<stop stop-color="#FA5252"/>
<stop offset="1" stop-color="#DD2476"/>
</linearGradient>
</defs>
</svg>
