<svg width="100" height="40" viewBox="0 0 100 40" fill="none" xmlns="http://www.w3.org/2000/svg">
<rect width="100" height="40" rx="8" fill="url(#paint0_linear_252_75)"/>
<path d="M24.3281 17.6562C24.4323 17.5521 24.5495 17.5 24.6797 17.5C24.8099 17.474 25.1745 17.4609 25.7734 17.4609H26.75C26.8542 17.4609 26.9453 17.487 27.0234 17.5391C27.2318 17.6432 27.3359 17.8125 27.3359 18.0469C27.3359 18.2812 27.2448 18.4635 27.0625 18.5938C27.0104 18.6198 26.9193 18.6458 26.7891 18.6719H25.8125C25.0833 18.6719 24.6797 18.6589 24.6016 18.6328C24.3932 18.5807 24.263 18.4505 24.2109 18.2422C24.1589 18.0078 24.1979 17.8125 24.3281 17.6562ZM26.75 21.3281C25.7083 21.3281 25.0703 21.3411 24.8359 21.3672C24.6276 21.3932 24.4844 21.4453 24.4062 21.5234C24.3281 21.5755 24.263 21.6536 24.2109 21.7578C24.1849 21.862 24.1719 21.9661 24.1719 22.0703C24.1979 22.1484 24.237 22.2396 24.2891 22.3438C24.3672 22.4219 24.4583 22.487 24.5625 22.5391C24.6667 22.5651 25.3958 22.5781 26.75 22.5781L28.625 22.5391L28.9766 22.5C29.1589 22.3958 29.263 22.2396 29.2891 22.0312C29.3151 21.8229 29.25 21.6536 29.0938 21.5234C28.9896 21.4453 28.8333 21.4062 28.625 21.4062C28.4427 21.3802 27.8177 21.3672 26.75 21.3672V21.3281ZM35.4609 26.4453C35.4089 26.9922 35.2005 27.4609 34.8359 27.8516C34.4714 28.2682 34.0156 28.5417 33.4688 28.6719C33.3385 28.6979 32.974 28.724 32.375 28.75H21.125C20.5 28.724 20.1224 28.6979 19.9922 28.6719C19.6797 28.5938 19.3802 28.4635 19.0938 28.2812C18.8333 28.099 18.612 27.8776 18.4297 27.6172C18.2734 27.3828 18.1562 27.1094 18.0781 26.7969C18.0521 26.6667 18.026 26.3021 18 25.7031V14.3359C18 13.737 18.026 13.3724 18.0781 13.2422C18.2083 12.7474 18.4427 12.3307 18.7812 11.9922C19.1458 11.6536 19.5755 11.4193 20.0703 11.2891C20.2005 11.263 22.401 11.25 26.6719 11.25C30.9688 11.25 33.1953 11.263 33.3516 11.2891C34.2109 11.4714 34.8359 11.9401 35.2266 12.6953L35.2656 12.8516C35.3438 12.9818 35.3958 13.125 35.4219 13.2812C35.4479 13.5156 35.474 13.9844 35.5 14.6875V19.7656C35.5 23.9844 35.487 26.2109 35.4609 26.4453ZM32.1406 19.1797C32.0885 18.9714 31.9844 18.8281 31.8281 18.75C31.776 18.724 31.5807 18.6979 31.2422 18.6719L30.7734 18.6328C30.6953 18.6328 30.6042 18.6068 30.5 18.5547C30.3958 18.4766 30.3177 18.3984 30.2656 18.3203C30.2396 18.2161 30.2266 18.0599 30.2266 17.8516C30.2266 17.0443 29.901 16.3021 29.25 15.625C28.7552 15.1562 28.2214 14.8307 27.6484 14.6484C27.5182 14.6224 27.0104 14.5964 26.125 14.5703C25.2917 14.5703 24.7188 14.5833 24.4062 14.6094C24.0938 14.6354 23.7943 14.7135 23.5078 14.8438C22.9609 15.0521 22.5052 15.3646 22.1406 15.7812C21.8021 16.1979 21.5547 16.6927 21.3984 17.2656C21.3724 17.4219 21.3464 18.2552 21.3203 19.7656C21.3203 21.0156 21.3203 21.8229 21.3203 22.1875C21.3464 22.5521 21.3984 22.8516 21.4766 23.0859C21.6589 23.6589 21.9844 24.1536 22.4531 24.5703C22.9479 24.987 23.4688 25.2474 24.0156 25.3516C24.1979 25.3776 25.0573 25.4036 26.5938 25.4297C28.1302 25.4297 29.0156 25.4167 29.25 25.3906C30.0052 25.2865 30.6562 24.9479 31.2031 24.375C31.6198 23.9583 31.9062 23.4505 32.0625 22.8516C32.1146 22.6693 32.1406 22.0573 32.1406 21.0156C32.1667 19.9479 32.1667 19.3359 32.1406 19.1797Z" fill="white"/>
<path d="M51.9804 20.359C52.4658 20.4457 52.8774 20.7013 53.2154 21.126C53.5534 21.5507 53.7224 22.0317 53.7224 22.569C53.7224 23.0283 53.6011 23.4443 53.3584 23.817C53.1244 24.181 52.7821 24.4713 52.3314 24.688C51.8808 24.896 51.3564 25 50.7584 25H47.1444V15.965H50.5894C51.2048 15.965 51.7334 16.069 52.1754 16.277C52.6174 16.485 52.9511 16.7667 53.1764 17.122C53.4018 17.4687 53.5144 17.8587 53.5144 18.292C53.5144 18.812 53.3758 19.2453 53.0984 19.592C52.8211 19.9387 52.4484 20.1943 51.9804 20.359ZM48.6264 19.761H50.4594C50.9448 19.761 51.3218 19.6527 51.5904 19.436C51.8678 19.2107 52.0064 18.89 52.0064 18.474C52.0064 18.0667 51.8678 17.7503 51.5904 17.525C51.3218 17.291 50.9448 17.174 50.4594 17.174H48.6264V19.761ZM50.6284 23.791C51.1311 23.791 51.5254 23.6697 51.8114 23.427C52.0974 23.1843 52.2404 22.8463 52.2404 22.413C52.2404 21.971 52.0888 21.62 51.7854 21.36C51.4821 21.1 51.0791 20.97 50.5764 20.97H48.6264V23.791H50.6284ZM56.8149 15.38V25H55.3329V15.38H56.8149ZM61.8676 25.117C61.1916 25.117 60.5806 24.9653 60.0346 24.662C59.4886 24.35 59.0596 23.9167 58.7476 23.362C58.4356 22.7987 58.2796 22.1487 58.2796 21.412C58.2796 20.684 58.44 20.0383 58.7606 19.475C59.0813 18.9117 59.519 18.4783 60.0736 18.175C60.6283 17.8717 61.248 17.72 61.9326 17.72C62.6173 17.72 63.237 17.8717 63.7916 18.175C64.3463 18.4783 64.784 18.9117 65.1046 19.475C65.4253 20.0383 65.5856 20.684 65.5856 21.412C65.5856 22.14 65.421 22.7857 65.0916 23.349C64.7623 23.9123 64.3116 24.35 63.7396 24.662C63.1763 24.9653 62.5523 25.117 61.8676 25.117ZM61.8676 23.83C62.249 23.83 62.6043 23.739 62.9336 23.557C63.2716 23.375 63.5446 23.102 63.7526 22.738C63.9606 22.374 64.0646 21.932 64.0646 21.412C64.0646 20.892 63.965 20.4543 63.7656 20.099C63.5663 19.735 63.302 19.462 62.9726 19.28C62.6433 19.098 62.288 19.007 61.9066 19.007C61.5253 19.007 61.17 19.098 60.8406 19.28C60.52 19.462 60.2643 19.735 60.0736 20.099C59.883 20.4543 59.7876 20.892 59.7876 21.412C59.7876 22.1833 59.9826 22.7813 60.3726 23.206C60.7713 23.622 61.2696 23.83 61.8676 23.83ZM69.9367 17.72C70.4914 17.72 70.981 17.8327 71.4057 18.058C71.839 18.2747 72.177 18.5477 72.4197 18.877V17.837H73.9147V25.117C73.9147 25.7757 73.776 26.3607 73.4987 26.872C73.2214 27.392 72.8184 27.7993 72.2897 28.094C71.7697 28.3887 71.1457 28.536 70.4177 28.536C69.447 28.536 68.641 28.3063 67.9997 27.847C67.3584 27.3963 66.9944 26.781 66.9077 26.001H68.3767C68.4894 26.3737 68.7277 26.6727 69.0917 26.898C69.4644 27.132 69.9064 27.249 70.4177 27.249C71.0157 27.249 71.4967 27.067 71.8607 26.703C72.2334 26.339 72.4197 25.8103 72.4197 25.117V23.921C72.1684 24.259 71.826 24.545 71.3927 24.779C70.968 25.0043 70.4827 25.117 69.9367 25.117C69.3127 25.117 68.7407 24.961 68.2207 24.649C67.7094 24.3283 67.302 23.8863 66.9987 23.323C66.704 22.751 66.5567 22.1053 66.5567 21.386C66.5567 20.6667 66.704 20.0297 66.9987 19.475C67.302 18.9203 67.7094 18.4913 68.2207 18.188C68.7407 17.876 69.3127 17.72 69.9367 17.72ZM72.4197 21.412C72.4197 20.918 72.3157 20.489 72.1077 20.125C71.9084 19.761 71.644 19.4837 71.3147 19.293C70.9854 19.1023 70.63 19.007 70.2487 19.007C69.8674 19.007 69.512 19.1023 69.1827 19.293C68.8534 19.475 68.5847 19.748 68.3767 20.112C68.1774 20.4673 68.0777 20.892 68.0777 21.386C68.0777 21.88 68.1774 22.3133 68.3767 22.686C68.5847 23.0587 68.8534 23.3447 69.1827 23.544C69.5207 23.7347 69.876 23.83 70.2487 23.83C70.63 23.83 70.9854 23.7347 71.3147 23.544C71.644 23.3533 71.9084 23.076 72.1077 22.712C72.3157 22.3393 72.4197 21.906 72.4197 21.412ZM78.4612 25.117C77.8979 25.117 77.3909 25.0173 76.9402 24.818C76.4982 24.61 76.1472 24.3327 75.8872 23.986C75.6272 23.6307 75.4886 23.2363 75.4712 22.803H77.0052C77.0312 23.1063 77.1742 23.362 77.4342 23.57C77.7029 23.7693 78.0366 23.869 78.4352 23.869C78.8512 23.869 79.1719 23.791 79.3972 23.635C79.6312 23.4703 79.7482 23.2623 79.7482 23.011C79.7482 22.7423 79.6182 22.543 79.3582 22.413C79.1069 22.283 78.7039 22.14 78.1492 21.984C77.6119 21.8367 77.1742 21.6937 76.8362 21.555C76.4982 21.4163 76.2036 21.204 75.9522 20.918C75.7096 20.632 75.5882 20.255 75.5882 19.787C75.5882 19.4057 75.7009 19.059 75.9262 18.747C76.1516 18.4263 76.4722 18.175 76.8882 17.993C77.3129 17.811 77.7982 17.72 78.3442 17.72C79.1589 17.72 79.8132 17.928 80.3072 18.344C80.8099 18.7513 81.0786 19.3103 81.1132 20.021H79.6312C79.6052 19.7003 79.4752 19.4447 79.2412 19.254C79.0072 19.0633 78.6909 18.968 78.2922 18.968C77.9022 18.968 77.6032 19.0417 77.3952 19.189C77.1872 19.3363 77.0832 19.5313 77.0832 19.774C77.0832 19.9647 77.1526 20.125 77.2912 20.255C77.4299 20.385 77.5989 20.489 77.7982 20.567C77.9976 20.6363 78.2922 20.7273 78.6822 20.84C79.2022 20.9787 79.6269 21.1217 79.9562 21.269C80.2942 21.4077 80.5846 21.6157 80.8272 21.893C81.0699 22.1703 81.1956 22.5387 81.2042 22.998C81.2042 23.4053 81.0916 23.7693 80.8662 24.09C80.6409 24.4107 80.3202 24.662 79.9042 24.844C79.4969 25.026 79.0159 25.117 78.4612 25.117Z" fill="white"/>
<defs>
<linearGradient id="paint0_linear_252_75" x1="50" y1="0" x2="100" y2="40" gradientUnits="userSpaceOnUse">
<stop stop-color="#FA5252"/>
<stop offset="1" stop-color="#DD2476"/>
</linearGradient>
</defs>
</svg>
