<svg width="153" height="32" viewBox="0 0 153 32" fill="none" xmlns="http://www.w3.org/2000/svg">
<path d="M21.64 18.96C21.64 19.6533 21.48 20.3333 21.16 21C20.84 21.6667 20.44 22.2933 19.96 22.88C19.48 23.4667 18.96 24.0133 18.4 24.52C17.84 25 17.3333 25.4133 16.88 25.76C16.4 26.1333 15.84 26.5333 15.2 26.96C14.56 27.3867 13.9333 27.7867 13.32 28.16C12.7333 28.5333 12.2133 28.88 11.76 29.2C11.3067 29.4933 11.0267 29.6933 10.92 29.8L9.76 30.72C9.62667 30.8267 9.46667 30.8933 9.28 30.92C9.12 30.9467 8.98667 30.96 8.88 30.96C8.69333 30.96 8.54667 30.8667 8.44 30.68C8.33333 30.4667 8.28 30.2533 8.28 30.04C8.28 29.88 8.42667 29.6 8.72 29.2C9.04 28.7733 9.4 28.4133 9.8 28.12C10.2 27.8267 10.6933 27.5333 11.28 27.24C11.8667 26.9467 12.6667 26.48 13.68 25.84C14.1867 25.52 14.8 25.1067 15.52 24.6C16.24 24.0667 16.92 23.5067 17.56 22.92C18.2 22.3067 18.7467 21.68 19.2 21.04C19.6533 20.3733 19.88 19.7333 19.88 19.12C19.88 18.88 19.5867 18.64 19 18.4C18.44 18.1333 17.64 18 16.6 18C15.5333 18 14.4133 18.16 13.24 18.48C12.0667 18.8 10.9733 19.1467 9.96 19.52C8.97333 19.8933 8.12 20.24 7.4 20.56C6.68 20.88 6.24 21.04 6.08 21.04C6.16 21.6533 6.25333 22.4133 6.36 23.32C6.49333 24.2 6.62667 25.0533 6.76 25.88C6.89333 26.84 7.04 27.84 7.2 28.88H7.36C7.41333 29.1467 7.52 29.5333 7.68 30.04C7.84 30.5467 7.92 30.9467 7.92 31.24C7.92 31.6667 7.76 31.88 7.44 31.88C7.28 31.88 7.09333 31.7333 6.88 31.44C6.69333 31.1467 6.49333 30.8 6.28 30.4C6.09333 30 5.92 29.6133 5.76 29.24C5.62667 28.84 5.53333 28.56 5.48 28.4C5.24 27.52 5 26.5067 4.76 25.36C4.54667 24.2133 4.34667 23.0667 4.16 21.92C4 20.7467 3.86667 19.6533 3.76 18.64C3.68 17.6 3.64 16.7467 3.64 16.08C3.64 15.8933 3.68 15.7333 3.76 15.6C3.86667 15.4667 3.92 15.3333 3.92 15.2C3.92 15.0667 3.88 14.9733 3.8 14.92C3.74667 14.84 3.72 14.72 3.72 14.56C3.72 14.48 3.73333 14.4 3.76 14.32C3.81333 14.2133 3.93333 14.16 4.12 14.16C4.30667 14.2133 4.48 14.24 4.64 14.24C4.82667 14.24 4.98667 14.28 5.12 14.36C5.25333 14.4133 5.36 14.52 5.44 14.68C5.52 14.84 5.56 15.0933 5.56 15.44V15.68C5.56 15.7333 5.54667 15.8 5.52 15.88C5.52 15.9333 5.52 15.9867 5.52 16.04C5.52 16.4933 5.53333 16.8533 5.56 17.12C5.58667 17.3867 5.62667 17.52 5.68 17.52C5.76 17.52 6.04 17.3333 6.52 16.96C7.02667 16.56 7.62667 16.0667 8.32 15.48C9.01333 14.8933 9.76 14.24 10.56 13.52C11.3867 12.8 12.1733 12.1067 12.92 11.44C13.2133 11.1733 13.6133 10.8 14.12 10.32C14.6267 9.81333 15.12 9.28 15.6 8.72C16.1067 8.16 16.5333 7.64 16.88 7.16C17.2533 6.65333 17.44 6.26667 17.44 6C17.44 5.73333 17.36 5.6 17.2 5.6C16.9867 5.6 16.5333 5.69333 15.84 5.88C15.1467 6.06667 14.36 6.32 13.48 6.64C12.6 6.93333 11.6933 7.28 10.76 7.68C9.82667 8.08 9 8.49333 8.28 8.92C7.53333 9.42666 6.78667 9.98666 6.04 10.6C5.29333 11.2133 4.61333 11.8 4 12.36C3.41333 12.8933 2.92 13.36 2.52 13.76C2.14667 14.1333 1.94667 14.3467 1.92 14.4C1.86667 14.4533 1.84 14.5067 1.84 14.56C1.84 14.6133 1.85333 14.6933 1.88 14.8C1.93333 14.88 1.96 14.9467 1.96 15C1.96 15.08 1.90667 15.1467 1.8 15.2C1.69333 15.2533 1.57333 15.28 1.44 15.28C1.22667 15.28 0.96 15.24 0.64 15.16C0.32 15.0533 0.16 14.7867 0.16 14.36C0.16 13.9867 0.373333 13.52 0.8 12.96C1.22667 12.4 1.77333 11.8 2.44 11.16C3.13333 10.52 3.89333 9.89333 4.72 9.28C5.54667 8.64 6.36 8.05333 7.16 7.52C7.96 7.01333 8.82667 6.53333 9.76 6.08C10.72 5.6 11.6533 5.18667 12.56 4.84C13.4933 4.49333 14.3733 4.22666 15.2 4.04C16.0267 3.82667 16.7067 3.72 17.24 3.72C17.4533 3.72 17.6933 3.74667 17.96 3.8C18.2267 3.85333 18.48 3.93333 18.72 4.04C18.96 4.14667 19.16 4.29333 19.32 4.48C19.48 4.64 19.56 4.84 19.56 5.08C19.56 5.8 19.3467 6.54667 18.92 7.32C18.4933 8.06667 17.9333 8.82667 17.24 9.6C16.5467 10.3733 15.76 11.16 14.88 11.96C14.0267 12.7333 13.16 13.4933 12.28 14.24C11.4267 14.96 10.6 15.6667 9.8 16.36C9 17.0267 8.33333 17.64 7.8 18.2C8.09333 18.0933 8.57333 17.92 9.24 17.68C9.90667 17.4133 10.6267 17.16 11.4 16.92C12.2 16.6533 13 16.4267 13.8 16.24C14.6 16.0533 15.3067 15.96 15.92 15.96C16.1067 15.96 16.5067 15.9733 17.12 16C17.7333 16.0267 18.3733 16.1333 19.04 16.32C19.7067 16.5067 20.3067 16.8133 20.84 17.24C21.3733 17.64 21.64 18.2133 21.64 18.96ZM34.7891 31.4102C32.7578 31.4102 31.013 30.9544 29.5547 30.043C28.0964 29.1185 26.9766 27.849 26.1953 26.2344C25.4141 24.6198 25.0234 22.7578 25.0234 20.6484V20.2383C25.0234 18.1419 25.4141 16.2865 26.1953 14.6719C26.9766 13.0573 28.0964 11.7878 29.5547 10.8633C31.013 9.9388 32.7448 9.47656 34.75 9.47656C36.7812 9.47656 38.526 9.9388 39.9844 10.8633C41.4427 11.7747 42.5625 13.0443 43.3438 14.6719C44.125 16.2865 44.5156 18.1419 44.5156 20.2383V20.6484C44.5156 22.7708 44.125 24.6393 43.3438 26.2539C42.5625 27.8685 41.4427 29.1315 39.9844 30.043C38.5391 30.9544 36.8073 31.4102 34.7891 31.4102ZM34.7891 27.6211C36.4167 27.6211 37.6276 26.9766 38.4219 25.6875C39.2161 24.3854 39.6133 22.7057 39.6133 20.6484V20.2383C39.6133 18.2201 39.2096 16.5599 38.4023 15.2578C37.6081 13.9427 36.3906 13.2852 34.75 13.2852C33.1224 13.2852 31.9115 13.9427 31.1172 15.2578C30.3359 16.5599 29.9453 18.2201 29.9453 20.2383V20.6484C29.9453 22.7057 30.3359 24.3854 31.1172 25.6875C31.9115 26.9766 33.1354 27.6211 34.7891 27.6211ZM56.0977 31.4102C54.5872 31.4102 53.1745 31.2669 51.8594 30.9805C50.5573 30.681 49.2487 30.2448 47.9336 29.6719L47.875 24.0859H51.4102L52.1523 27.1328C52.7253 27.3932 53.3047 27.5885 53.8906 27.7188C54.4766 27.849 55.1341 27.9141 55.8633 27.9141C57.2695 27.9141 58.2591 27.6667 58.832 27.1719C59.418 26.6771 59.7109 26.0651 59.7109 25.3359C59.7109 24.6458 59.4049 24.0469 58.793 23.5391C58.194 23.0312 57.0417 22.5951 55.3359 22.2305C52.7969 21.6836 50.9349 20.8893 49.75 19.8477C48.5651 18.793 47.9727 17.4258 47.9727 15.7461C47.9727 14.6003 48.2786 13.5521 48.8906 12.6016C49.5156 11.651 50.4271 10.8958 51.625 10.3359C52.8359 9.77604 54.3203 9.49609 56.0781 9.49609C57.6797 9.49609 59.099 9.66536 60.3359 10.0039C61.5859 10.3294 62.6471 10.7656 63.5195 11.3125L63.6562 16.6836H60.1406L59.5352 13.8906C58.6888 13.2917 57.6081 12.9922 56.293 12.9922C55.2122 12.9922 54.3594 13.2331 53.7344 13.7148C53.1094 14.1836 52.7969 14.776 52.7969 15.4922C52.7969 16.1172 53.0443 16.6576 53.5391 17.1133C54.0339 17.569 55.1276 17.9857 56.8203 18.3633C59.5677 19.0013 61.5339 19.8346 62.7188 20.8633C63.9036 21.8919 64.4961 23.2526 64.4961 24.9453C64.4961 26.8333 63.806 28.3828 62.4258 29.5938C61.0456 30.8047 58.9362 31.4102 56.0977 31.4102ZM75.3164 31.3711C73.5195 31.3711 72.1198 30.8698 71.1172 29.8672C70.1146 28.8516 69.6133 27.237 69.6133 25.0234V13.3828H66.5273V9.86719H69.6133V4.73047H74.5156V9.86719H78.6953V13.3828H74.5156V25.0234C74.5156 25.9219 74.6979 26.5729 75.0625 26.9766C75.4401 27.3802 75.9479 27.582 76.5859 27.582C76.9505 27.582 77.3542 27.556 77.7969 27.5039C78.2526 27.4388 78.6237 27.3737 78.9102 27.3086L79.3984 30.7656C78.8385 30.9349 78.1875 31.0781 77.4453 31.1953C76.7031 31.3125 75.9935 31.3711 75.3164 31.3711ZM88.6758 31.4102C86.5273 31.4102 84.8542 30.8568 83.6562 29.75C82.4583 28.6432 81.8594 27.1198 81.8594 25.1797C81.8594 23.1875 82.6667 21.5729 84.2812 20.3359C85.9089 19.099 88.2396 18.4805 91.2734 18.4805H94.4961V16.7031C94.4961 15.5833 94.1576 14.6914 93.4805 14.0273C92.8164 13.3633 91.8464 13.0312 90.5703 13.0312C89.8411 13.0312 89.1966 13.1224 88.6367 13.3047C88.0768 13.474 87.5755 13.7214 87.1328 14.0469L86.7031 16.8984H83.0703L83.0312 11.6836C84.0599 10.9935 85.2122 10.4531 86.4883 10.0625C87.7773 9.67188 89.2031 9.47656 90.7656 9.47656C93.4479 9.47656 95.5573 10.1081 97.0938 11.3711C98.6432 12.6341 99.418 14.431 99.418 16.7617V26.0781C99.418 26.3646 99.418 26.6445 99.418 26.918C99.431 27.1784 99.4505 27.4453 99.4766 27.7188L101.625 27.9922V31H95.1992C95.069 30.5443 94.9453 30.1016 94.8281 29.6719C94.724 29.2422 94.6458 28.8125 94.5938 28.3828C93.8906 29.2682 93.0378 29.9974 92.0352 30.5703C91.0326 31.1302 89.9128 31.4102 88.6758 31.4102ZM89.7891 27.6016C90.7917 27.6016 91.7161 27.3737 92.5625 26.918C93.4219 26.4492 94.0664 25.8633 94.4961 25.1602V21.625H91.2148C89.7435 21.625 88.6302 21.9701 87.875 22.6602C87.1328 23.3372 86.7617 24.1315 86.7617 25.043C86.7617 26.7487 87.7708 27.6016 89.7891 27.6016ZM103.949 31V27.9922L106.898 27.4062V13.4805L103.793 12.8945V9.86719H111.41L111.645 12.6406C112.322 11.638 113.181 10.8633 114.223 10.3164C115.264 9.75651 116.469 9.47656 117.836 9.47656C119.216 9.47656 120.395 9.78906 121.371 10.4141C122.361 11.026 123.109 11.957 123.617 13.207C124.268 12.0482 125.121 11.1367 126.176 10.4727C127.243 9.80859 128.493 9.47656 129.926 9.47656C132.035 9.47656 133.702 10.1992 134.926 11.6445C136.15 13.0898 136.762 15.2773 136.762 18.207V27.4062L139.711 27.9922V31H129.066V27.9922L131.84 27.4062V18.168C131.84 16.3971 131.54 15.1536 130.941 14.4375C130.342 13.7214 129.464 13.3633 128.305 13.3633C127.224 13.3633 126.332 13.7083 125.629 14.3984C124.939 15.0755 124.49 15.9544 124.281 17.0352V27.4062L126.957 27.9922V31H116.703V27.9922L119.379 27.4062V18.168C119.379 16.4622 119.073 15.2383 118.461 14.4961C117.849 13.7409 116.964 13.3633 115.805 13.3633C114.841 13.3633 114.027 13.5586 113.363 13.9492C112.712 14.3398 112.191 14.8932 111.801 15.6094V27.4062L114.574 27.9922V31H103.949ZM141.859 31V27.9922L144.789 27.4062V13.4805L141.684 12.8945V9.86719H149.711V27.4062L152.621 27.9922V31H141.859ZM144.594 5.08203V0.53125H149.711V5.08203H144.594Z" fill="url(#paint0_linear_252_218)"/>
<defs>
<linearGradient id="paint0_linear_252_218" x1="77.5" y1="-11" x2="155.035" y2="40.4399" gradientUnits="userSpaceOnUse">
<stop stop-color="#FA5252"/>
<stop offset="1" stop-color="#DD2476"/>
</linearGradient>
</defs>
</svg>
