<svg width="118" height="40" viewBox="0 0 118 40" fill="none" xmlns="http://www.w3.org/2000/svg">
<rect width="118" height="40" rx="8" fill="url(#paint0_linear_252_52)"/>
<path d="M35.0312 16.75C35.1615 16.75 35.2656 16.7109 35.3438 16.6328C35.4479 16.5286 35.5 16.4115 35.5 16.2812V14.7188C35.5 14.5885 35.4479 14.4844 35.3438 14.4062C35.2656 14.3021 35.1615 14.25 35.0312 14.25H34.25V13C34.25 12.3229 34.0026 11.737 33.5078 11.2422C33.013 10.7474 32.4271 10.5 31.75 10.5H20.5C19.8229 10.5 19.237 10.7474 18.7422 11.2422C18.2474 11.737 18 12.3229 18 13V28C18 28.6771 18.2474 29.263 18.7422 29.7578C19.237 30.2526 19.8229 30.5 20.5 30.5H31.75C32.4271 30.5 33.013 30.2526 33.5078 29.7578C34.0026 29.263 34.25 28.6771 34.25 28V26.75H35.0312C35.1615 26.75 35.2656 26.7109 35.3438 26.6328C35.4479 26.5286 35.5 26.4115 35.5 26.2812V24.7188C35.5 24.5885 35.4479 24.4844 35.3438 24.4062C35.2656 24.3021 35.1615 24.25 35.0312 24.25H34.25V21.75H35.0312C35.1615 21.75 35.2656 21.7109 35.3438 21.6328C35.4479 21.5286 35.5 21.4115 35.5 21.2812V19.7188C35.5 19.5885 35.4479 19.4844 35.3438 19.4062C35.2656 19.3021 35.1615 19.25 35.0312 19.25H34.25V16.75H35.0312ZM33 28C33 28.3385 32.8698 28.625 32.6094 28.8594C32.375 29.1198 32.0885 29.25 31.75 29.25H20.5C20.1615 29.25 19.862 29.1198 19.6016 28.8594C19.3672 28.625 19.25 28.3385 19.25 28V13C19.25 12.6615 19.3672 12.375 19.6016 12.1406C19.862 11.8802 20.1615 11.75 20.5 11.75H31.75C32.0885 11.75 32.375 11.8802 32.6094 12.1406C32.8698 12.375 33 12.6615 33 13V28ZM26.125 21.125C26.9844 21.125 27.7135 20.8255 28.3125 20.2266C28.9375 19.6016 29.25 18.8594 29.25 18C29.25 17.1406 28.9375 16.4115 28.3125 15.8125C27.7135 15.1875 26.9844 14.875 26.125 14.875C25.2656 14.875 24.5234 15.1875 23.8984 15.8125C23.2995 16.4115 23 17.1406 23 18C23 18.8594 23.2995 19.6016 23.8984 20.2266C24.5234 20.8255 25.2656 21.125 26.125 21.125ZM26.125 16.125C26.6458 16.125 27.0885 16.3073 27.4531 16.6719C27.8177 17.0365 28 17.4792 28 18C28 18.5208 27.8177 18.9635 27.4531 19.3281C27.0885 19.6927 26.6458 19.875 26.125 19.875C25.6042 19.875 25.1615 19.6927 24.7969 19.3281C24.4323 18.9635 24.25 18.5208 24.25 18C24.25 17.4792 24.4323 17.0365 24.7969 16.6719C25.1615 16.3073 25.6042 16.125 26.125 16.125ZM27.9609 21.75C27.7005 21.75 27.401 21.8021 27.0625 21.9062C26.75 21.9844 26.4375 22.0234 26.125 22.0234C25.8125 22.0234 25.487 21.9844 25.1484 21.9062C24.8359 21.8021 24.5495 21.75 24.2891 21.75C23.8724 21.75 23.4688 21.8411 23.0781 22.0234C22.7135 22.2057 22.4141 22.4661 22.1797 22.8047C21.8932 23.2474 21.75 23.7422 21.75 24.2891V25.8125C21.75 25.8906 21.776 25.9688 21.8281 26.0469C21.9062 26.099 21.9844 26.125 22.0625 26.125H22.6875C22.7656 26.125 22.8307 26.099 22.8828 26.0469C22.9609 25.9688 23 25.8906 23 25.8125V24.2891C23 24.0026 23.0781 23.7422 23.2344 23.5078C23.4688 23.1693 23.8203 23 24.2891 23C24.4193 23 24.6146 23.0391 24.875 23.1172C25.3177 23.2214 25.7344 23.2734 26.125 23.2734C26.5156 23.2734 26.9323 23.2214 27.375 23.1172C27.6354 23.0391 27.8307 23 27.9609 23C28.4297 23 28.7812 23.1693 29.0156 23.5078C29.1719 23.7422 29.25 24.0026 29.25 24.2891V25.8125C29.25 25.8906 29.276 25.9688 29.3281 26.0469C29.4062 26.099 29.4844 26.125 29.5625 26.125H30.1875C30.2917 26.125 30.3698 26.099 30.4219 26.0469C30.474 25.9688 30.5 25.8906 30.5 25.8125V24.2891C30.5 23.7422 30.3568 23.2474 30.0703 22.8047C29.8359 22.4661 29.5234 22.2057 29.1328 22.0234C28.7682 21.8411 28.3776 21.75 27.9609 21.75Z" fill="white"/>
<path d="M46.9478 20.463C46.9478 19.579 47.1515 18.786 47.5588 18.084C47.9748 17.382 48.5338 16.836 49.2358 16.446C49.9465 16.0473 50.7221 15.848 51.5628 15.848C52.5248 15.848 53.3785 16.0863 54.1238 16.563C54.8778 17.031 55.4238 17.6983 55.7618 18.565H53.9808C53.7468 18.0883 53.4218 17.733 53.0058 17.499C52.5898 17.265 52.1088 17.148 51.5628 17.148C50.9648 17.148 50.4318 17.2823 49.9638 17.551C49.4958 17.8197 49.1275 18.2053 48.8588 18.708C48.5988 19.2107 48.4688 19.7957 48.4688 20.463C48.4688 21.1303 48.5988 21.7153 48.8588 22.218C49.1275 22.7207 49.4958 23.1107 49.9638 23.388C50.4318 23.6567 50.9648 23.791 51.5628 23.791C52.1088 23.791 52.5898 23.674 53.0058 23.44C53.4218 23.206 53.7468 22.8507 53.9808 22.374H55.7618C55.4238 23.2407 54.8778 23.908 54.1238 24.376C53.3785 24.844 52.5248 25.078 51.5628 25.078C50.7135 25.078 49.9378 24.883 49.2358 24.493C48.5338 24.0943 47.9748 23.544 47.5588 22.842C47.1515 22.14 46.9478 21.347 46.9478 20.463ZM60.6035 25.117C59.9275 25.117 59.3165 24.9653 58.7705 24.662C58.2245 24.35 57.7955 23.9167 57.4835 23.362C57.1715 22.7987 57.0155 22.1487 57.0155 21.412C57.0155 20.684 57.1758 20.0383 57.4965 19.475C57.8172 18.9117 58.2548 18.4783 58.8095 18.175C59.3642 17.8717 59.9838 17.72 60.6685 17.72C61.3532 17.72 61.9728 17.8717 62.5275 18.175C63.0822 18.4783 63.5198 18.9117 63.8405 19.475C64.1612 20.0383 64.3215 20.684 64.3215 21.412C64.3215 22.14 64.1568 22.7857 63.8275 23.349C63.4982 23.9123 63.0475 24.35 62.4755 24.662C61.9122 24.9653 61.2882 25.117 60.6035 25.117ZM60.6035 23.83C60.9848 23.83 61.3402 23.739 61.6695 23.557C62.0075 23.375 62.2805 23.102 62.4885 22.738C62.6965 22.374 62.8005 21.932 62.8005 21.412C62.8005 20.892 62.7008 20.4543 62.5015 20.099C62.3022 19.735 62.0378 19.462 61.7085 19.28C61.3792 19.098 61.0238 19.007 60.6425 19.007C60.2612 19.007 59.9058 19.098 59.5765 19.28C59.2558 19.462 59.0002 19.735 58.8095 20.099C58.6188 20.4543 58.5235 20.892 58.5235 21.412C58.5235 22.1833 58.7185 22.7813 59.1085 23.206C59.5072 23.622 60.0055 23.83 60.6035 23.83ZM69.4005 17.72C69.9639 17.72 70.4665 17.837 70.9085 18.071C71.3592 18.305 71.7102 18.6517 71.9615 19.111C72.2129 19.5703 72.3385 20.125 72.3385 20.775V25H70.8695V20.996C70.8695 20.3547 70.7092 19.865 70.3885 19.527C70.0679 19.1803 69.6302 19.007 69.0755 19.007C68.5209 19.007 68.0789 19.1803 67.7495 19.527C67.4289 19.865 67.2685 20.3547 67.2685 20.996V25H65.7865V17.837H67.2685V18.656C67.5112 18.3613 67.8189 18.1317 68.1915 17.967C68.5729 17.8023 68.9759 17.72 69.4005 17.72ZM75.9579 19.046V23.011C75.9579 23.2797 76.0186 23.4747 76.1399 23.596C76.2699 23.7087 76.4866 23.765 76.7899 23.765H77.6999V25H76.5299C75.8626 25 75.3512 24.844 74.9959 24.532C74.6406 24.22 74.4629 23.713 74.4629 23.011V19.046H73.6179V17.837H74.4629V16.056H75.9579V17.837H77.6999V19.046H75.9579ZM78.5718 21.386C78.5718 20.6667 78.7192 20.0297 79.0138 19.475C79.3172 18.9203 79.7245 18.4913 80.2358 18.188C80.7558 17.876 81.3278 17.72 81.9518 17.72C82.5152 17.72 83.0048 17.8327 83.4208 18.058C83.8455 18.2747 84.1835 18.5477 84.4348 18.877V17.837H85.9298V25H84.4348V23.934C84.1835 24.272 83.8412 24.5537 83.4078 24.779C82.9745 25.0043 82.4805 25.117 81.9258 25.117C81.3105 25.117 80.7472 24.961 80.2358 24.649C79.7245 24.3283 79.3172 23.8863 79.0138 23.323C78.7192 22.751 78.5718 22.1053 78.5718 21.386ZM84.4348 21.412C84.4348 20.918 84.3308 20.489 84.1228 20.125C83.9235 19.761 83.6592 19.4837 83.3298 19.293C83.0005 19.1023 82.6452 19.007 82.2638 19.007C81.8825 19.007 81.5272 19.1023 81.1978 19.293C80.8685 19.475 80.5998 19.748 80.3918 20.112C80.1925 20.4673 80.0928 20.892 80.0928 21.386C80.0928 21.88 80.1925 22.3133 80.3918 22.686C80.5998 23.0587 80.8685 23.3447 81.1978 23.544C81.5358 23.7347 81.8912 23.83 82.2638 23.83C82.6452 23.83 83.0005 23.7347 83.3298 23.544C83.6592 23.3533 83.9235 23.076 84.1228 22.712C84.3308 22.3393 84.4348 21.906 84.4348 21.412ZM87.3824 21.412C87.3824 20.6753 87.5297 20.0297 87.8244 19.475C88.1277 18.9117 88.5437 18.4783 89.0724 18.175C89.601 17.8717 90.2077 17.72 90.8924 17.72C91.759 17.72 92.474 17.928 93.0374 18.344C93.6094 18.7513 93.995 19.3363 94.1944 20.099H92.5954C92.4654 19.7437 92.2574 19.4663 91.9714 19.267C91.6854 19.0677 91.3257 18.968 90.8924 18.968C90.2857 18.968 89.8004 19.1847 89.4364 19.618C89.081 20.0427 88.9034 20.6407 88.9034 21.412C88.9034 22.1833 89.081 22.7857 89.4364 23.219C89.8004 23.6523 90.2857 23.869 90.8924 23.869C91.7504 23.869 92.318 23.492 92.5954 22.738H94.1944C93.9864 23.466 93.5964 24.0467 93.0244 24.48C92.4524 24.9047 91.7417 25.117 90.8924 25.117C90.2077 25.117 89.601 24.9653 89.0724 24.662C88.5437 24.35 88.1277 23.9167 87.8244 23.362C87.5297 22.7987 87.3824 22.1487 87.3824 21.412ZM97.4003 19.046V23.011C97.4003 23.2797 97.461 23.4747 97.5823 23.596C97.7123 23.7087 97.929 23.765 98.2323 23.765H99.1423V25H97.9723C97.305 25 96.7936 24.844 96.4383 24.532C96.083 24.22 95.9053 23.713 95.9053 23.011V19.046H95.0603V17.837H95.9053V16.056H97.4003V17.837H99.1423V19.046H97.4003Z" fill="white"/>
<defs>
<linearGradient id="paint0_linear_252_52" x1="59" y1="2.59355e-06" x2="118" y2="40" gradientUnits="userSpaceOnUse">
<stop stop-color="#FA5252"/>
<stop offset="1" stop-color="#DD2476"/>
</linearGradient>
</defs>
</svg>
