<svg width="115" height="40" viewBox="0 0 115 40" fill="none" xmlns="http://www.w3.org/2000/svg">
<rect width="115" height="40" rx="8" fill="url(#paint0_linear_252_882)"/>
<path d="M32.4531 14.3281L29.1719 11.0469C28.8073 10.6823 28.3646 10.5 27.8438 10.5H19.875C19.3542 10.5 18.9115 10.6823 18.5469 11.0469C18.1823 11.4115 18 11.8542 18 12.375V28.625C18 29.1458 18.1823 29.5885 18.5469 29.9531C18.9115 30.3177 19.3542 30.5 19.875 30.5H31.125C31.6458 30.5 32.0885 30.3177 32.4531 29.9531C32.8177 29.5885 33 29.1458 33 28.625V15.6562C33 15.1354 32.8177 14.6927 32.4531 14.3281ZM31.5547 15.2266C31.6328 15.3047 31.6979 15.3958 31.75 15.5H28V11.75C28.1042 11.8021 28.1953 11.8672 28.2734 11.9453L31.5547 15.2266ZM31.125 29.25H19.875C19.6927 29.25 19.5365 29.1849 19.4062 29.0547C19.3021 28.9505 19.25 28.8073 19.25 28.625V12.375C19.25 12.1927 19.3021 12.0495 19.4062 11.9453C19.5365 11.8151 19.6927 11.75 19.875 11.75H26.75V15.8125C26.75 16.0729 26.8411 16.2943 27.0234 16.4766C27.2057 16.6589 27.4271 16.75 27.6875 16.75H31.75V28.625C31.75 28.8073 31.6849 28.9505 31.5547 29.0547C31.4505 29.1849 31.3073 29.25 31.125 29.25ZM29.25 19.7188V20.0312C29.25 20.1615 29.1979 20.2786 29.0938 20.3828C29.0156 20.4609 28.9115 20.5 28.7812 20.5H22.2188C22.0885 20.5 21.9714 20.4609 21.8672 20.3828C21.7891 20.2786 21.75 20.1615 21.75 20.0312V19.7188C21.75 19.5885 21.7891 19.4844 21.8672 19.4062C21.9714 19.3021 22.0885 19.25 22.2188 19.25H28.7812C28.9115 19.25 29.0156 19.3021 29.0938 19.4062C29.1979 19.4844 29.25 19.5885 29.25 19.7188ZM29.25 22.2188V22.5312C29.25 22.6615 29.1979 22.7786 29.0938 22.8828C29.0156 22.9609 28.9115 23 28.7812 23H22.2188C22.0885 23 21.9714 22.9609 21.8672 22.8828C21.7891 22.7786 21.75 22.6615 21.75 22.5312V22.2188C21.75 22.0885 21.7891 21.9844 21.8672 21.9062C21.9714 21.8021 22.0885 21.75 22.2188 21.75H28.7812C28.9115 21.75 29.0156 21.8021 29.0938 21.9062C29.1979 21.9844 29.25 22.0885 29.25 22.2188ZM29.25 24.7188V25.0312C29.25 25.1615 29.1979 25.2786 29.0938 25.3828C29.0156 25.4609 28.9115 25.5 28.7812 25.5H22.2188C22.0885 25.5 21.9714 25.4609 21.8672 25.3828C21.7891 25.2786 21.75 25.1615 21.75 25.0312V24.7188C21.75 24.5885 21.7891 24.4844 21.8672 24.4062C21.9714 24.3021 22.0885 24.25 22.2188 24.25H28.7812C28.9115 24.25 29.0156 24.3021 29.0938 24.4062C29.1979 24.4844 29.25 24.5885 29.25 24.7188Z" fill="white"/>
<path d="M49.0904 25L47.0104 21.386H45.8794V25H44.3974V15.965H47.5174C48.2107 15.965 48.7957 16.0863 49.2724 16.329C49.7577 16.5717 50.1174 16.8967 50.3514 17.304C50.594 17.7113 50.7154 18.1663 50.7154 18.669C50.7154 19.2583 50.542 19.7957 50.1954 20.281C49.8574 20.7577 49.333 21.0827 48.6224 21.256L50.8584 25H49.0904ZM45.8794 20.203H47.5174C48.072 20.203 48.488 20.0643 48.7654 19.787C49.0514 19.5097 49.1944 19.137 49.1944 18.669C49.1944 18.201 49.0557 17.837 48.7784 17.577C48.501 17.3083 48.0807 17.174 47.5174 17.174H45.8794V20.203ZM59.1762 21.243C59.1762 21.5117 59.1589 21.7543 59.1242 21.971H53.6512C53.6946 22.543 53.9069 23.0023 54.2882 23.349C54.6696 23.6957 55.1376 23.869 55.6922 23.869C56.4896 23.869 57.0529 23.5353 57.3822 22.868H58.9812C58.7646 23.5267 58.3702 24.0683 57.7982 24.493C57.2349 24.909 56.5329 25.117 55.6922 25.117C55.0076 25.117 54.3922 24.9653 53.8462 24.662C53.3089 24.35 52.8842 23.9167 52.5722 23.362C52.2689 22.7987 52.1172 22.1487 52.1172 21.412C52.1172 20.6753 52.2646 20.0297 52.5592 19.475C52.8626 18.9117 53.2829 18.4783 53.8202 18.175C54.3662 17.8717 54.9902 17.72 55.6922 17.72C56.3682 17.72 56.9706 17.8673 57.4992 18.162C58.0279 18.4567 58.4396 18.8727 58.7342 19.41C59.0289 19.9387 59.1762 20.5497 59.1762 21.243ZM57.6292 20.775C57.6206 20.229 57.4256 19.7913 57.0442 19.462C56.6629 19.1327 56.1906 18.968 55.6272 18.968C55.1159 18.968 54.6782 19.1327 54.3142 19.462C53.9502 19.7827 53.7336 20.2203 53.6642 20.775H57.6292ZM63.2347 25.117C62.6713 25.117 62.1643 25.0173 61.7137 24.818C61.2717 24.61 60.9207 24.3327 60.6607 23.986C60.4007 23.6307 60.262 23.2363 60.2447 22.803H61.7787C61.8047 23.1063 61.9477 23.362 62.2077 23.57C62.4763 23.7693 62.81 23.869 63.2087 23.869C63.6247 23.869 63.9453 23.791 64.1707 23.635C64.4047 23.4703 64.5217 23.2623 64.5217 23.011C64.5217 22.7423 64.3917 22.543 64.1317 22.413C63.8803 22.283 63.4773 22.14 62.9227 21.984C62.3853 21.8367 61.9477 21.6937 61.6097 21.555C61.2717 21.4163 60.977 21.204 60.7257 20.918C60.483 20.632 60.3617 20.255 60.3617 19.787C60.3617 19.4057 60.4743 19.059 60.6997 18.747C60.925 18.4263 61.2457 18.175 61.6617 17.993C62.0863 17.811 62.5717 17.72 63.1177 17.72C63.9323 17.72 64.5867 17.928 65.0807 18.344C65.5833 18.7513 65.852 19.3103 65.8867 20.021H64.4047C64.3787 19.7003 64.2487 19.4447 64.0147 19.254C63.7807 19.0633 63.4643 18.968 63.0657 18.968C62.6757 18.968 62.3767 19.0417 62.1687 19.189C61.9607 19.3363 61.8567 19.5313 61.8567 19.774C61.8567 19.9647 61.926 20.125 62.0647 20.255C62.2033 20.385 62.3723 20.489 62.5717 20.567C62.771 20.6363 63.0657 20.7273 63.4557 20.84C63.9757 20.9787 64.4003 21.1217 64.7297 21.269C65.0677 21.4077 65.358 21.6157 65.6007 21.893C65.8433 22.1703 65.969 22.5387 65.9777 22.998C65.9777 23.4053 65.865 23.7693 65.6397 24.09C65.4143 24.4107 65.0937 24.662 64.6777 24.844C64.2703 25.026 63.7893 25.117 63.2347 25.117ZM74.066 17.837V25H72.584V24.155C72.35 24.4497 72.0423 24.6837 71.661 24.857C71.2883 25.0217 70.8897 25.104 70.465 25.104C69.9017 25.104 69.3947 24.987 68.944 24.753C68.502 24.519 68.151 24.1723 67.891 23.713C67.6397 23.2537 67.514 22.699 67.514 22.049V17.837H68.983V21.828C68.983 22.4693 69.1433 22.9633 69.464 23.31C69.7847 23.648 70.2223 23.817 70.777 23.817C71.3317 23.817 71.7693 23.648 72.09 23.31C72.4193 22.9633 72.584 22.4693 72.584 21.828V17.837H74.066ZM84.6924 17.72C85.2557 17.72 85.7584 17.837 86.2004 18.071C86.6511 18.305 87.0021 18.6517 87.2534 19.111C87.5134 19.5703 87.6434 20.125 87.6434 20.775V25H86.1744V20.996C86.1744 20.3547 86.0141 19.865 85.6934 19.527C85.3727 19.1803 84.9351 19.007 84.3804 19.007C83.8257 19.007 83.3837 19.1803 83.0544 19.527C82.7337 19.865 82.5734 20.3547 82.5734 20.996V25H81.1044V20.996C81.1044 20.3547 80.9441 19.865 80.6234 19.527C80.3027 19.1803 79.8651 19.007 79.3104 19.007C78.7557 19.007 78.3137 19.1803 77.9844 19.527C77.6637 19.865 77.5034 20.3547 77.5034 20.996V25H76.0214V17.837H77.5034V18.656C77.7461 18.3613 78.0537 18.1317 78.4264 17.967C78.7991 17.8023 79.1977 17.72 79.6224 17.72C80.1944 17.72 80.7057 17.8413 81.1564 18.084C81.6071 18.3267 81.9537 18.6777 82.1964 19.137C82.4131 18.7037 82.7511 18.3613 83.2104 18.11C83.6697 17.85 84.1637 17.72 84.6924 17.72ZM96.0942 21.243C96.0942 21.5117 96.0769 21.7543 96.0422 21.971H90.5692C90.6125 22.543 90.8249 23.0023 91.2062 23.349C91.5875 23.6957 92.0555 23.869 92.6102 23.869C93.4075 23.869 93.9709 23.5353 94.3002 22.868H95.8992C95.6825 23.5267 95.2882 24.0683 94.7162 24.493C94.1529 24.909 93.4509 25.117 92.6102 25.117C91.9255 25.117 91.3102 24.9653 90.7642 24.662C90.2269 24.35 89.8022 23.9167 89.4902 23.362C89.1869 22.7987 89.0352 22.1487 89.0352 21.412C89.0352 20.6753 89.1825 20.0297 89.4772 19.475C89.7805 18.9117 90.2009 18.4783 90.7382 18.175C91.2842 17.8717 91.9082 17.72 92.6102 17.72C93.2862 17.72 93.8885 17.8673 94.4172 18.162C94.9459 18.4567 95.3575 18.8727 95.6522 19.41C95.9469 19.9387 96.0942 20.5497 96.0942 21.243ZM94.5472 20.775C94.5385 20.229 94.3435 19.7913 93.9622 19.462C93.5809 19.1327 93.1085 18.968 92.5452 18.968C92.0339 18.968 91.5962 19.1327 91.2322 19.462C90.8682 19.7827 90.6515 20.2203 90.5822 20.775H94.5472Z" fill="white"/>
<defs>
<linearGradient id="paint0_linear_252_882" x1="57.5" y1="0" x2="115" y2="40" gradientUnits="userSpaceOnUse">
<stop stop-color="#FA5252"/>
<stop offset="1" stop-color="#DD2476"/>
</linearGradient>
</defs>
</svg>
