<svg width="107" height="40" viewBox="0 0 107 40" fill="none" xmlns="http://www.w3.org/2000/svg">
<rect width="107" height="40" rx="8" fill="url(#paint0_linear_252_583)"/>
<path d="M35.5 23.3334V16.6667C35.4997 16.3745 35.4225 16.0874 35.2763 15.8344C35.13 15.5813 34.9198 15.3712 34.6667 15.2251L28.8333 11.8917C28.58 11.7455 28.2926 11.6685 28 11.6685C27.7074 11.6685 27.42 11.7455 27.1667 11.8917L21.3333 15.2251C21.0802 15.3712 20.87 15.5813 20.7237 15.8344C20.5775 16.0874 20.5003 16.3745 20.5 16.6667V23.3334C20.5003 23.6257 20.5775 23.9127 20.7237 24.1658C20.87 24.4188 21.0802 24.6289 21.3333 24.7751L27.1667 28.1084C27.42 28.2547 27.7074 28.3317 28 28.3317C28.2926 28.3317 28.58 28.2547 28.8333 28.1084L34.6667 24.7751C34.9198 24.6289 35.13 24.4188 35.2763 24.1658C35.4225 23.9127 35.4997 23.6257 35.5 23.3334Z" stroke="white" stroke-width="1.5" stroke-linecap="round" stroke-linejoin="round"/>
<path d="M24.25 13.5083L28 15.675L31.75 13.5083" stroke="white" stroke-width="1.5" stroke-linecap="round" stroke-linejoin="round"/>
<path d="M24.25 26.4917V22.1667L20.5 20" stroke="white" stroke-width="1.5" stroke-linecap="round" stroke-linejoin="round"/>
<path d="M35.5 20L31.75 22.1667V26.4917" stroke="white" stroke-width="1.5" stroke-linecap="round" stroke-linejoin="round"/>
<path d="M20.725 15.8L28 20.0084L35.275 15.8" stroke="white" stroke-width="1.5" stroke-linecap="round" stroke-linejoin="round"/>
<path d="M28 28.4V20" stroke="white" stroke-width="1.5" stroke-linecap="round" stroke-linejoin="round"/>
<path d="M61.0354 15.965L58.3574 25H56.6804L54.7824 18.162L52.7674 25L51.1034 25.013L48.5424 15.965H50.1154L51.9874 23.323L54.0154 15.965H55.6794L57.5644 23.284L59.4494 15.965H61.0354ZM65.3647 25.117C64.6887 25.117 64.0777 24.9653 63.5317 24.662C62.9857 24.35 62.5567 23.9167 62.2447 23.362C61.9327 22.7987 61.7767 22.1487 61.7767 21.412C61.7767 20.684 61.937 20.0383 62.2577 19.475C62.5784 18.9117 63.016 18.4783 63.5707 18.175C64.1254 17.8717 64.745 17.72 65.4297 17.72C66.1144 17.72 66.734 17.8717 67.2887 18.175C67.8434 18.4783 68.281 18.9117 68.6017 19.475C68.9224 20.0383 69.0827 20.684 69.0827 21.412C69.0827 22.14 68.918 22.7857 68.5887 23.349C68.2594 23.9123 67.8087 24.35 67.2367 24.662C66.6734 24.9653 66.0494 25.117 65.3647 25.117ZM65.3647 23.83C65.746 23.83 66.1014 23.739 66.4307 23.557C66.7687 23.375 67.0417 23.102 67.2497 22.738C67.4577 22.374 67.5617 21.932 67.5617 21.412C67.5617 20.892 67.462 20.4543 67.2627 20.099C67.0634 19.735 66.799 19.462 66.4697 19.28C66.1404 19.098 65.785 19.007 65.4037 19.007C65.0224 19.007 64.667 19.098 64.3377 19.28C64.017 19.462 63.7614 19.735 63.5707 20.099C63.38 20.4543 63.2847 20.892 63.2847 21.412C63.2847 22.1833 63.4797 22.7813 63.8697 23.206C64.2684 23.622 64.7667 23.83 65.3647 23.83ZM72.0298 18.877C72.2464 18.513 72.5324 18.2313 72.8878 18.032C73.2518 17.824 73.6808 17.72 74.1748 17.72V19.254H73.7978C73.2171 19.254 72.7751 19.4013 72.4718 19.696C72.1771 19.9907 72.0298 20.502 72.0298 21.23V25H70.5478V17.837H72.0298V18.877ZM78.371 21.425L81.673 25H79.671L77.019 21.919V25H75.537V15.38H77.019V20.97L79.619 17.837H81.673L78.371 21.425ZM85.3353 25.117C84.7719 25.117 84.2649 25.0173 83.8143 24.818C83.3723 24.61 83.0213 24.3327 82.7613 23.986C82.5013 23.6307 82.3626 23.2363 82.3453 22.803H83.8793C83.9053 23.1063 84.0483 23.362 84.3083 23.57C84.5769 23.7693 84.9106 23.869 85.3093 23.869C85.7253 23.869 86.0459 23.791 86.2713 23.635C86.5053 23.4703 86.6223 23.2623 86.6223 23.011C86.6223 22.7423 86.4923 22.543 86.2323 22.413C85.9809 22.283 85.5779 22.14 85.0233 21.984C84.4859 21.8367 84.0483 21.6937 83.7103 21.555C83.3723 21.4163 83.0776 21.204 82.8263 20.918C82.5836 20.632 82.4623 20.255 82.4623 19.787C82.4623 19.4057 82.5749 19.059 82.8003 18.747C83.0256 18.4263 83.3463 18.175 83.7623 17.993C84.1869 17.811 84.6723 17.72 85.2183 17.72C86.0329 17.72 86.6873 17.928 87.1813 18.344C87.6839 18.7513 87.9526 19.3103 87.9873 20.021H86.5053C86.4793 19.7003 86.3493 19.4447 86.1153 19.254C85.8813 19.0633 85.5649 18.968 85.1663 18.968C84.7763 18.968 84.4773 19.0417 84.2693 19.189C84.0613 19.3363 83.9573 19.5313 83.9573 19.774C83.9573 19.9647 84.0266 20.125 84.1653 20.255C84.3039 20.385 84.4729 20.489 84.6723 20.567C84.8716 20.6363 85.1663 20.7273 85.5563 20.84C86.0763 20.9787 86.5009 21.1217 86.8303 21.269C87.1683 21.4077 87.4586 21.6157 87.7013 21.893C87.9439 22.1703 88.0696 22.5387 88.0783 22.998C88.0783 23.4053 87.9656 23.7693 87.7403 24.09C87.5149 24.4107 87.1943 24.662 86.7783 24.844C86.3709 25.026 85.8899 25.117 85.3353 25.117Z" fill="white"/>
<defs>
<linearGradient id="paint0_linear_252_583" x1="53.5" y1="-2.13254e-06" x2="107" y2="40" gradientUnits="userSpaceOnUse">
<stop stop-color="#FA5252"/>
<stop offset="1" stop-color="#DD2476"/>
</linearGradient>
</defs>
</svg>
